<svg xmlns="http://www.w3.org/2000/svg" viewBox="0 0 1640 680">
  <defs>
    <style>
      @import url('https://fonts.googleapis.com/css2?family=JetBrains+Mono:wght@400;500;600;700&amp;display=swap');
      text { font-family: 'JetBrains Mono', 'SF Mono', 'Cascadia Code', monospace; }
    </style>
    <pattern id="grid" width="40" height="40" patternUnits="userSpaceOnUse">
      <path d="M 40 0 L 0 0 0 40" fill="none" stroke="#1e293b" stroke-width="0.5"/>
    </pattern>
    <marker id="arrow" markerWidth="10" markerHeight="7" refX="9" refY="3.5" orient="auto">
      <polygon points="0 0, 10 3.5, 0 7" fill="#64748b"/>
    </marker>
    <marker id="arrow-green" markerWidth="10" markerHeight="7" refX="9" refY="3.5" orient="auto">
      <polygon points="0 0, 10 3.5, 0 7" fill="#22c55e"/>
    </marker>
    <marker id="arrow-blue" markerWidth="10" markerHeight="7" refX="9" refY="3.5" orient="auto">
      <polygon points="0 0, 10 3.5, 0 7" fill="#3b82f6"/>
    </marker>
    <marker id="arrow-purple" markerWidth="10" markerHeight="7" refX="9" refY="3.5" orient="auto">
      <polygon points="0 0, 10 3.5, 0 7" fill="#8b5cf6"/>
    </marker>
    <marker id="arrow-orange" markerWidth="10" markerHeight="7" refX="9" refY="3.5" orient="auto">
      <polygon points="0 0, 10 3.5, 0 7" fill="#f59e0b"/>
    </marker>
  </defs>

  <!-- Background -->
  <rect width="1640" height="680" fill="#0f172a"/>
  <rect width="1640" height="680" fill="url(#grid)"/>

  <!-- Header bar -->
  <rect x="0" y="0" width="1640" height="76" fill="#091428"/>
  <text x="820" y="26" fill="white" font-size="16" font-weight="700" text-anchor="middle" letter-spacing="0.5">Intelligent Healthcare Compliance &amp; Safety Management System</text>
  <text x="820" y="47" fill="#6b9bd2" font-size="11.5" text-anchor="middle">Agile / Scrum Project Management Plan  ·  3 Sprints × 2 Weeks + 1 Release Week  =  7 Weeks Total</text>
  <text x="820" y="65" fill="#3d5a7a" font-size="10" text-anchor="middle">Group W  ·  Abu Sufian  ·  Xiao Liang  ·  MSE800 Week 9</text>

  <!-- Timeline bars -->
  <rect x="20"   y="82" width="388" height="26" rx="5" fill="#22c55e"/>
  <text x="214"  y="99" fill="white" font-size="10.5" font-weight="600" text-anchor="middle" letter-spacing="0.5">SPRINT 1  ·  Week 1 – 2</text>
  <line x1="408" y1="95" x2="418" y2="95" stroke="#64748b" stroke-width="2" marker-end="url(#arrow)"/>

  <rect x="420"  y="82" width="388" height="26" rx="5" fill="#3b82f6"/>
  <text x="614"  y="99" fill="white" font-size="10.5" font-weight="600" text-anchor="middle" letter-spacing="0.5">SPRINT 2  ·  Week 3 – 4</text>
  <line x1="808" y1="95" x2="818" y2="95" stroke="#64748b" stroke-width="2" marker-end="url(#arrow)"/>

  <rect x="820"  y="82" width="388" height="26" rx="5" fill="#8b5cf6"/>
  <text x="1014" y="99" fill="white" font-size="10.5" font-weight="600" text-anchor="middle" letter-spacing="0.5">SPRINT 3  ·  Week 5 – 6</text>
  <line x1="1208" y1="95" x2="1218" y2="95" stroke="#f59e0b" stroke-width="2" marker-end="url(#arrow-orange)"/>

  <rect x="1220" y="82" width="400" height="26" rx="5" fill="#f59e0b"/>
  <text x="1420" y="99" fill="white" font-size="10.5" font-weight="600" text-anchor="middle" letter-spacing="0.5">★  RELEASE  ·  Week 7</text>

  <!-- Card-to-card sprint flow arrows (drawn first, hidden under cards, visible in gap) -->
  <line x1="408"  y1="374" x2="420"  y2="374" stroke="#22c55e" stroke-width="1.5" stroke-dasharray="3,3" marker-end="url(#arrow-green)"/>
  <line x1="808"  y1="374" x2="820"  y2="374" stroke="#3b82f6" stroke-width="1.5" stroke-dasharray="3,3" marker-end="url(#arrow-blue)"/>
  <line x1="1208" y1="374" x2="1220" y2="374" stroke="#8b5cf6" stroke-width="1.5" stroke-dasharray="3,3" marker-end="url(#arrow-purple)"/>

  <!-- ═══════════════════════════════════════ -->
  <!-- SPRINT 1  x=20 y=124 w=388 h=500       -->
  <!-- ═══════════════════════════════════════ -->
  <rect x="20" y="124" width="388" height="500" rx="10" fill="#0f172a"/>
  <rect x="20" y="124" width="388" height="500" rx="10" fill="rgba(6,78,59,0.22)" stroke="#22c55e" stroke-width="1.5"/>
  <rect x="20" y="124" width="388" height="5"   fill="#22c55e"/>

  <!-- S1 Header -->
  <rect x="38"  y="140" width="68" height="20" rx="4" fill="#22c55e"/>
  <text x="72"  y="154" fill="white" font-size="8.5" font-weight="700" text-anchor="middle">SPRINT 1</text>
  <text x="120" y="151" fill="white" font-size="13" font-weight="700">Foundation &amp; Auth</text>
  <rect x="38"  y="165" width="68" height="16" rx="4" fill="#14532d"/>
  <text x="72"  y="176.5" fill="#86efac" font-size="8" text-anchor="middle">Week 1 – 2</text>

  <rect x="38" y="188" width="352" height="1.5" fill="#1e3a2f"/>

  <text x="38" y="200" fill="#22c55e" font-size="7.5" font-weight="600" letter-spacing="1">SPRINT GOAL</text>
  <text x="38" y="215" fill="#94a3b8" font-size="8.5">Build a secure JWT authentication system and core user</text>
  <text x="38" y="229" fill="#94a3b8" font-size="8.5">management API with role-based access control (RBAC)</text>

  <rect x="38" y="242" width="352" height="1.5" fill="#1e3a2f"/>
  <text x="38" y="254" fill="#475569" font-size="7.5" font-weight="600" letter-spacing="1.5">SCRUM CEREMONIES</text>

  <!-- S1 Ceremony: Sprint Planning (TL) -->
  <rect x="38"  y="260" width="172" height="58" rx="5" fill="#0f172a"/>
  <rect x="38"  y="260" width="172" height="58" rx="5" fill="rgba(8,51,68,0.5)" stroke="#38bdf8" stroke-width="1"/>
  <text x="48"  y="274" fill="#38bdf8" font-size="8" font-weight="600">Sprint Planning</text>
  <text x="48"  y="287" fill="#64748b" font-size="7.5">Auth + RBAC stories</text>
  <text x="48"  y="299" fill="#64748b" font-size="7.5">Sprint backlog set</text>
  <text x="48"  y="311" fill="#64748b" font-size="7.5">Backend/frontend split</text>

  <!-- S1 Ceremony: Daily Standup (TR) -->
  <rect x="218" y="260" width="172" height="58" rx="5" fill="#0f172a"/>
  <rect x="218" y="260" width="172" height="58" rx="5" fill="rgba(6,78,59,0.4)" stroke="#34d399" stroke-width="1"/>
  <text x="228" y="274" fill="#34d399" font-size="8" font-weight="600">Daily Standup</text>
  <text x="228" y="287" fill="#64748b" font-size="7.5">15-min sync daily</text>
  <text x="228" y="299" fill="#64748b" font-size="7.5">JWT blockers resolved</text>
  <text x="228" y="311" fill="#64748b" font-size="7.5">CORS issues tracked</text>

  <!-- S1 Ceremony: Sprint Review (BL) -->
  <rect x="38"  y="326" width="172" height="58" rx="5" fill="#0f172a"/>
  <rect x="38"  y="326" width="172" height="58" rx="5" fill="rgba(76,29,149,0.3)" stroke="#a78bfa" stroke-width="1"/>
  <text x="48"  y="340" fill="#a78bfa" font-size="8" font-weight="600">Sprint Review</text>
  <text x="48"  y="353" fill="#64748b" font-size="7.5">Demo login + RBAC</text>
  <text x="48"  y="365" fill="#64748b" font-size="7.5">to stakeholders</text>
  <text x="48"  y="377" fill="#64748b" font-size="7.5">All stories accepted ✓</text>

  <!-- S1 Ceremony: Retrospective (BR) -->
  <rect x="218" y="326" width="172" height="58" rx="5" fill="#0f172a"/>
  <rect x="218" y="326" width="172" height="58" rx="5" fill="rgba(136,19,55,0.3)" stroke="#fb7185" stroke-width="1"/>
  <text x="228" y="340" fill="#fb7185" font-size="8" font-weight="600">Retrospective</text>
  <text x="228" y="353" fill="#64748b" font-size="7.5">JWT took 1 day extra</text>
  <text x="228" y="365" fill="#64748b" font-size="7.5">Add integration tests</text>
  <text x="228" y="377" fill="#64748b" font-size="7.5">to Sprint 2 backlog</text>

  <rect x="38" y="392" width="352" height="1.5" fill="#1e3a2f"/>
  <text x="38" y="404" fill="#475569" font-size="7.5" font-weight="600" letter-spacing="1.5">USER STORIES</text>

  <rect x="38" y="410" width="352" height="26" rx="4" fill="#0a1f13"/>
  <text x="46"  y="426.5" fill="#a7f3d0" font-size="8.5">&#x25B8;  As a staff, I can register and log in with JWT authentication</text>

  <rect x="38" y="440" width="352" height="26" rx="4" fill="#0a1f13"/>
  <text x="46"  y="456.5" fill="#a7f3d0" font-size="8.5">&#x25B8;  As an admin, I can manage user roles and permissions</text>

  <rect x="38" y="470" width="352" height="26" rx="4" fill="#0a1f13"/>
  <text x="46"  y="486.5" fill="#a7f3d0" font-size="8.5">&#x25B8;  As a staff, I can view and complete training modules</text>

  <rect x="38" y="504" width="352" height="1.5" fill="#1e3a2f"/>
  <text x="38" y="516" fill="#4ade80" font-size="7.5" font-weight="600" letter-spacing="1">SPRINT INCREMENT</text>
  <rect x="38" y="522" width="352" height="44" rx="5" fill="#14532d"/>
  <text x="214" y="540" fill="#bbf7d0" font-size="9" text-anchor="middle" font-weight="500">JWT auth + RBAC + Training module</text>
  <text x="214" y="556" fill="#86efac" font-size="8.5" text-anchor="middle">deployed to staging environment ✓</text>

  <text x="38" y="580" fill="#334155" font-size="7.5">Velocity: 21 SP  ·  Stories: 3/3  ·  Bugs fixed: 4  ·  PO Accepted: ✓</text>

  <!-- ═══════════════════════════════════════ -->
  <!-- SPRINT 2  x=420 y=124 w=388 h=500      -->
  <!-- ═══════════════════════════════════════ -->
  <rect x="420" y="124" width="388" height="500" rx="10" fill="#0f172a"/>
  <rect x="420" y="124" width="388" height="500" rx="10" fill="rgba(23,37,84,0.25)" stroke="#3b82f6" stroke-width="1.5"/>
  <rect x="420" y="124" width="388" height="5"   fill="#3b82f6"/>

  <rect x="438" y="140" width="68" height="20" rx="4" fill="#3b82f6"/>
  <text x="472" y="154" fill="white" font-size="8.5" font-weight="700" text-anchor="middle">SPRINT 2</text>
  <text x="520" y="151" fill="white" font-size="13" font-weight="700">Compliance Engine</text>
  <rect x="438" y="165" width="68" height="16" rx="4" fill="#1e3a8a"/>
  <text x="472" y="176.5" fill="#93c5fd" font-size="8" text-anchor="middle">Week 3 – 4</text>

  <rect x="438" y="188" width="352" height="1.5" fill="#1e293b"/>

  <text x="438" y="200" fill="#60a5fa" font-size="7.5" font-weight="600" letter-spacing="1">SPRINT GOAL</text>
  <text x="438" y="215" fill="#94a3b8" font-size="8.5">Build incident reporting and AI-powered RAG compliance</text>
  <text x="438" y="229" fill="#94a3b8" font-size="8.5">chatbot using fastembed + OpenRouter Llama 4 Scout</text>

  <rect x="438" y="242" width="352" height="1.5" fill="#1e293b"/>
  <text x="438" y="254" fill="#475569" font-size="7.5" font-weight="600" letter-spacing="1.5">SCRUM CEREMONIES</text>

  <rect x="438" y="260" width="172" height="58" rx="5" fill="#0f172a"/>
  <rect x="438" y="260" width="172" height="58" rx="5" fill="rgba(8,51,68,0.5)" stroke="#38bdf8" stroke-width="1"/>
  <text x="448" y="274" fill="#38bdf8" font-size="8" font-weight="600">Sprint Planning</text>
  <text x="448" y="287" fill="#64748b" font-size="7.5">Incident CRUD + RAG</text>
  <text x="448" y="299" fill="#64748b" font-size="7.5">pipeline stories</text>
  <text x="448" y="311" fill="#64748b" font-size="7.5">pgvector setup tasks</text>

  <rect x="618" y="260" width="172" height="58" rx="5" fill="#0f172a"/>
  <rect x="618" y="260" width="172" height="58" rx="5" fill="rgba(6,78,59,0.4)" stroke="#34d399" stroke-width="1"/>
  <text x="628" y="274" fill="#34d399" font-size="8" font-weight="600">Daily Standup</text>
  <text x="628" y="287" fill="#64748b" font-size="7.5">15-min sync daily</text>
  <text x="628" y="299" fill="#64748b" font-size="7.5">pgvector setup tracked</text>
  <text x="628" y="311" fill="#64748b" font-size="7.5">Chatbot latency noted</text>

  <rect x="438" y="326" width="172" height="58" rx="5" fill="#0f172a"/>
  <rect x="438" y="326" width="172" height="58" rx="5" fill="rgba(76,29,149,0.3)" stroke="#a78bfa" stroke-width="1"/>
  <text x="448" y="340" fill="#a78bfa" font-size="8" font-weight="600">Sprint Review</text>
  <text x="448" y="353" fill="#64748b" font-size="7.5">Demo incident submit</text>
  <text x="448" y="365" fill="#64748b" font-size="7.5">chatbot Q&amp;A live</text>
  <text x="448" y="377" fill="#64748b" font-size="7.5">PO sign-off received ✓</text>

  <rect x="618" y="326" width="172" height="58" rx="5" fill="#0f172a"/>
  <rect x="618" y="326" width="172" height="58" rx="5" fill="rgba(136,19,55,0.3)" stroke="#fb7185" stroke-width="1"/>
  <text x="628" y="340" fill="#fb7185" font-size="8" font-weight="600">Retrospective</text>
  <text x="628" y="353" fill="#64748b" font-size="7.5">Chatbot latency high</text>
  <text x="628" y="365" fill="#64748b" font-size="7.5">Optimise chunk retrieval</text>
  <text x="628" y="377" fill="#64748b" font-size="7.5">in Sprint 3 backlog</text>

  <rect x="438" y="392" width="352" height="1.5" fill="#1e293b"/>
  <text x="438" y="404" fill="#475569" font-size="7.5" font-weight="600" letter-spacing="1.5">USER STORIES</text>

  <rect x="438" y="410" width="352" height="26" rx="4" fill="#0a1025"/>
  <text x="446" y="426.5" fill="#93c5fd" font-size="8.5">&#x25B8;  As a staff, I can submit safety incident reports</text>

  <rect x="438" y="440" width="352" height="26" rx="4" fill="#0a1025"/>
  <text x="446" y="456.5" fill="#93c5fd" font-size="8.5">&#x25B8;  As an admin, I can review and resolve incident reports</text>

  <rect x="438" y="470" width="352" height="26" rx="4" fill="#0a1025"/>
  <text x="446" y="486.5" fill="#93c5fd" font-size="8.5">&#x25B8;  As a staff, I can query the AI compliance chatbot</text>

  <rect x="438" y="504" width="352" height="1.5" fill="#1e293b"/>
  <text x="438" y="516" fill="#60a5fa" font-size="7.5" font-weight="600" letter-spacing="1">SPRINT INCREMENT</text>
  <rect x="438" y="522" width="352" height="44" rx="5" fill="#1e3a8a"/>
  <text x="614" y="540" fill="#bfdbfe" font-size="9" text-anchor="middle" font-weight="500">Incident reporting + RAG chatbot</text>
  <text x="614" y="556" fill="#93c5fd" font-size="8.5" text-anchor="middle">live on staging environment ✓</text>

  <text x="438" y="580" fill="#334155" font-size="7.5">Velocity: 24 SP  ·  Stories: 3/3  ·  Bugs fixed: 3  ·  PO Accepted: ✓</text>

  <!-- ═══════════════════════════════════════ -->
  <!-- SPRINT 3  x=820 y=124 w=388 h=500      -->
  <!-- ═══════════════════════════════════════ -->
  <rect x="820" y="124" width="388" height="500" rx="10" fill="#0f172a"/>
  <rect x="820" y="124" width="388" height="500" rx="10" fill="rgba(46,16,101,0.25)" stroke="#8b5cf6" stroke-width="1.5"/>
  <rect x="820" y="124" width="388" height="5"   fill="#8b5cf6"/>

  <rect x="838" y="140" width="68" height="20" rx="4" fill="#8b5cf6"/>
  <text x="872" y="154" fill="white" font-size="8.5" font-weight="700" text-anchor="middle">SPRINT 3</text>
  <text x="920" y="151" fill="white" font-size="13" font-weight="700">Dashboard &amp; QA</text>
  <rect x="838" y="165" width="68" height="16" rx="4" fill="#3730a3"/>
  <text x="872" y="176.5" fill="#c4b5fd" font-size="8" text-anchor="middle">Week 5 – 6</text>

  <rect x="838" y="188" width="352" height="1.5" fill="#1e1b4b"/>

  <text x="838" y="200" fill="#a78bfa" font-size="7.5" font-weight="600" letter-spacing="1">SPRINT GOAL</text>
  <text x="838" y="215" fill="#94a3b8" font-size="8.5">Build real-time analytics dashboards; complete full QA</text>
  <text x="838" y="229" fill="#94a3b8" font-size="8.5">suite and verify all 10 business compliance metrics</text>

  <rect x="838" y="242" width="352" height="1.5" fill="#1e1b4b"/>
  <text x="838" y="254" fill="#475569" font-size="7.5" font-weight="600" letter-spacing="1.5">SCRUM CEREMONIES</text>

  <rect x="838"  y="260" width="172" height="58" rx="5" fill="#0f172a"/>
  <rect x="838"  y="260" width="172" height="58" rx="5" fill="rgba(8,51,68,0.5)" stroke="#38bdf8" stroke-width="1"/>
  <text x="848"  y="274" fill="#38bdf8" font-size="8" font-weight="600">Sprint Planning</text>
  <text x="848"  y="287" fill="#64748b" font-size="7.5">Dashboard + QA stories</text>
  <text x="848"  y="299" fill="#64748b" font-size="7.5">Test plan defined</text>
  <text x="848"  y="311" fill="#64748b" font-size="7.5">10 metrics targeted</text>

  <rect x="1018" y="260" width="172" height="58" rx="5" fill="#0f172a"/>
  <rect x="1018" y="260" width="172" height="58" rx="5" fill="rgba(6,78,59,0.4)" stroke="#34d399" stroke-width="1"/>
  <text x="1028" y="274" fill="#34d399" font-size="8" font-weight="600">Daily Standup</text>
  <text x="1028" y="287" fill="#64748b" font-size="7.5">15-min sync daily</text>
  <text x="1028" y="299" fill="#64748b" font-size="7.5">Cross-browser testing</text>
  <text x="1028" y="311" fill="#64748b" font-size="7.5">Bug triage daily</text>

  <rect x="838"  y="326" width="172" height="58" rx="5" fill="#0f172a"/>
  <rect x="838"  y="326" width="172" height="58" rx="5" fill="rgba(76,29,149,0.3)" stroke="#a78bfa" stroke-width="1"/>
  <text x="848"  y="340" fill="#a78bfa" font-size="8" font-weight="600">Sprint Review</text>
  <text x="848"  y="353" fill="#64748b" font-size="7.5">Full demo end-to-end</text>
  <text x="848"  y="365" fill="#64748b" font-size="7.5">All 10 metrics ✓</text>
  <text x="848"  y="377" fill="#64748b" font-size="7.5">Stakeholder sign-off</text>

  <rect x="1018" y="326" width="172" height="58" rx="5" fill="#0f172a"/>
  <rect x="1018" y="326" width="172" height="58" rx="5" fill="rgba(136,19,55,0.3)" stroke="#fb7185" stroke-width="1"/>
  <text x="1028" y="340" fill="#fb7185" font-size="8" font-weight="600">Retrospective</text>
  <text x="1028" y="353" fill="#64748b" font-size="7.5">PDF export deferred</text>
  <text x="1028" y="365" fill="#64748b" font-size="7.5">Post-launch backlog</text>
  <text x="1028" y="377" fill="#64748b" font-size="7.5">Monitoring docs added</text>

  <rect x="838" y="392" width="352" height="1.5" fill="#1e1b4b"/>
  <text x="838" y="404" fill="#475569" font-size="7.5" font-weight="600" letter-spacing="1.5">USER STORIES</text>

  <rect x="838"  y="410" width="352" height="26" rx="4" fill="#160f2e"/>
  <text x="846"  y="426.5" fill="#c4b5fd" font-size="8.5">&#x25B8;  As an admin, I can view real-time compliance dashboards</text>

  <rect x="838"  y="440" width="352" height="26" rx="4" fill="#160f2e"/>
  <text x="846"  y="456.5" fill="#c4b5fd" font-size="8.5">&#x25B8;  As a staff, I can track my training completion progress</text>

  <rect x="838"  y="470" width="352" height="26" rx="4" fill="#160f2e"/>
  <text x="846"  y="486.5" fill="#c4b5fd" font-size="8.5">&#x25B8;  As an admin, I can generate compliance audit reports</text>

  <rect x="838" y="504" width="352" height="1.5" fill="#1e1b4b"/>
  <text x="838" y="516" fill="#a78bfa" font-size="7.5" font-weight="600" letter-spacing="1">SPRINT INCREMENT</text>
  <rect x="838"  y="522" width="352" height="44" rx="5" fill="#3730a3"/>
  <text x="1014" y="540" fill="#e0d9ff" font-size="9" text-anchor="middle" font-weight="500">Full dashboard + QA pass + production build</text>
  <text x="1014" y="556" fill="#c4b5fd" font-size="8.5" text-anchor="middle">all 10 metrics verified ✓</text>

  <text x="838" y="580" fill="#334155" font-size="7.5">Velocity: 26 SP  ·  Stories: 3/3  ·  Bugs fixed: 5  ·  PO Accepted: ✓</text>

  <!-- ═══════════════════════════════════════════ -->
  <!-- RELEASE CARD  x=1220 y=124 w=400 h=500     -->
  <!-- ═══════════════════════════════════════════ -->
  <rect x="1220" y="124" width="400" height="500" rx="10" fill="#0f172a"/>
  <rect x="1220" y="124" width="400" height="500" rx="10" fill="rgba(120,53,15,0.2)" stroke="#f59e0b" stroke-width="1.5"/>
  <rect x="1220" y="124" width="400" height="5"   fill="#f59e0b"/>

  <rect x="1238" y="140" width="68" height="20" rx="4" fill="#f59e0b"/>
  <text x="1272" y="154" fill="white" font-size="8.5" font-weight="700" text-anchor="middle">RELEASE</text>
  <text x="1320" y="151" fill="white" font-size="13" font-weight="700">Go Live &amp; Monitor</text>
  <rect x="1238" y="165" width="68" height="16" rx="4" fill="#92400e"/>
  <text x="1272" y="176.5" fill="#fde68a" font-size="8" text-anchor="middle">Week 7</text>

  <rect x="1238" y="188" width="364" height="1.5" fill="#2d1a00"/>

  <text x="1238" y="200" fill="#fbbf24" font-size="7.5" font-weight="600" letter-spacing="1">RELEASE GOAL</text>
  <text x="1238" y="215" fill="#94a3b8" font-size="8.5">Deploy all 3 sprint increments to production;</text>
  <text x="1238" y="229" fill="#94a3b8" font-size="8.5">monitor 48 h and complete stakeholder handoff</text>

  <rect x="1238" y="242" width="364" height="1.5" fill="#2d1a00"/>
  <text x="1238" y="254" fill="#475569" font-size="7.5" font-weight="600" letter-spacing="1.5">DEPLOYMENT CHECKLIST</text>

  <rect x="1238" y="260" width="364" height="38" rx="5" fill="#0f172a"/>
  <rect x="1238" y="260" width="364" height="38" rx="5" fill="rgba(120,53,15,0.3)" stroke="#f59e0b" stroke-width="1"/>
  <text x="1248" y="274" fill="#fbbf24" font-size="8" font-weight="600">Cloud Deployment</text>
  <text x="1248" y="290" fill="#64748b" font-size="7.5">React to Vercel  ·  Django to Render  ·  PostgreSQL to Supabase</text>

  <rect x="1238" y="304" width="364" height="38" rx="5" fill="#0f172a"/>
  <rect x="1238" y="304" width="364" height="38" rx="5" fill="rgba(120,53,15,0.3)" stroke="#f59e0b" stroke-width="1"/>
  <text x="1248" y="318" fill="#fbbf24" font-size="8" font-weight="600">Smoke Testing</text>
  <text x="1248" y="334" fill="#64748b" font-size="7.5">Auth · incidents · chatbot · dashboard all verified ✓</text>

  <rect x="1238" y="348" width="364" height="38" rx="5" fill="#0f172a"/>
  <rect x="1238" y="348" width="364" height="38" rx="5" fill="rgba(120,53,15,0.3)" stroke="#f59e0b" stroke-width="1"/>
  <text x="1248" y="362" fill="#fbbf24" font-size="8" font-weight="600">48-Hour Monitoring</text>
  <text x="1248" y="378" fill="#64748b" font-size="7.5">Error rate &lt; 0.1%  ·  Latency &lt; 300 ms  ·  Uptime 99.9%</text>

  <rect x="1238" y="392" width="364" height="1.5" fill="#2d1a00"/>
  <text x="1238" y="404" fill="#475569" font-size="7.5" font-weight="600" letter-spacing="1.5">FINAL DELIVERABLES</text>

  <rect x="1238" y="410" width="364" height="26" rx="4" fill="#1a0e00"/>
  <text x="1246" y="426.5" fill="#fde68a" font-size="8.5">&#x25B8;  Production URL — Vercel + Render + Supabase live</text>

  <rect x="1238" y="440" width="364" height="26" rx="4" fill="#1a0e00"/>
  <text x="1246" y="456.5" fill="#fde68a" font-size="8.5">&#x25B8;  Full test report — 10 business metrics verified</text>

  <rect x="1238" y="470" width="364" height="26" rx="4" fill="#1a0e00"/>
  <text x="1246" y="486.5" fill="#fde68a" font-size="8.5">&#x25B8;  Handoff docs — README + API docs + runbook</text>

  <rect x="1238" y="504" width="364" height="1.5" fill="#2d1a00"/>
  <text x="1238" y="516" fill="#f59e0b" font-size="7.5" font-weight="600" letter-spacing="1">PROJECT COMPLETE</text>
  <rect x="1238" y="522" width="364" height="44" rx="5" fill="#92400e"/>
  <text x="1420" y="540" fill="#fef3c7" font-size="9" text-anchor="middle" font-weight="500">Healthcare Compliance Platform v1.0</text>
  <text x="1420" y="556" fill="#fde68a" font-size="8.5" text-anchor="middle">HIPAA · GDPR · Production Ready ✓</text>

  <text x="1238" y="580" fill="#334155" font-size="7.5">Total: 71 SP  ·  Sprints: 3  ·  Duration: 7 weeks  ·  Team: 2 devs</text>

  <!-- ─── FOOTER ─── -->
  <rect x="0" y="634" width="1640" height="46" fill="#091428"/>
  <text x="20"   y="651" fill="#475569" font-size="8" font-weight="600">SCRUM ROLES:</text>
  <rect x="120"  y="641" width="10" height="10" rx="2" fill="#22c55e"/>
  <text x="136"  y="651" fill="#94a3b8" font-size="8">Product Owner — Abu Sufian (backlog prioritisation)</text>
  <rect x="430"  y="641" width="10" height="10" rx="2" fill="#3b82f6"/>
  <text x="446"  y="651" fill="#94a3b8" font-size="8">Scrum Master — Xiao Liang (facilitating ceremonies)</text>
  <rect x="740"  y="641" width="10" height="10" rx="2" fill="#8b5cf6"/>
  <text x="756"  y="651" fill="#94a3b8" font-size="8">Dev Team — Abu Sufian &amp; Xiao Liang (full-stack delivery)</text>
  <text x="1095" y="651" fill="#475569" font-size="8">Story Points:</text>
  <rect x="1185" y="641" width="8" height="10" rx="1" fill="#22c55e"/>
  <text x="1197" y="651" fill="#94a3b8" font-size="8">S1: 21</text>
  <rect x="1242" y="641" width="8" height="10" rx="1" fill="#3b82f6"/>
  <text x="1254" y="651" fill="#94a3b8" font-size="8">S2: 24</text>
  <rect x="1299" y="641" width="8" height="10" rx="1" fill="#8b5cf6"/>
  <text x="1311" y="651" fill="#94a3b8" font-size="8">S3: 26</text>
  <text x="1360" y="651" fill="#f59e0b" font-size="8" font-weight="600">Total: 71 SP</text>
  <text x="20"   y="668" fill="#1e3a5f" font-size="7.5">DoD: Code reviewed  ·  Unit tests pass  ·  Integrated on staging  ·  PO accepted  ·  Documented</text>
  <text x="1620" y="668" fill="#1e3a5f" font-size="7.5" text-anchor="end">SP = Story Points  ·  PO = Product Owner  ·  DoD = Definition of Done</text>
</svg>
