<svg xmlns="http://www.w3.org/2000/svg" viewBox="0 0 1400 780" width="1400" height="780">
  <defs>
    <style>text { font-family: 'JetBrains Mono','SF Mono','Cascadia Code',monospace; }</style>
    <pattern id="grid" width="40" height="40" patternUnits="userSpaceOnUse">
      <path d="M 40 0 L 0 0 0 40" fill="none" stroke="#1e293b" stroke-width="0.5"/>
    </pattern>
    <!-- Hollow triangle → inheritance (tip at parent) -->
    <marker id="inherit" markerWidth="14" markerHeight="10" refX="13" refY="5" orient="auto">
      <polygon points="0 0, 12 5, 0 10" fill="#0f172a" stroke="#94a3b8" stroke-width="1.3"/>
    </marker>
    <!-- Filled arrow → association / FK -->
    <marker id="assoc" markerWidth="10" markerHeight="7" refX="9" refY="3.5" orient="auto">
      <polygon points="0 0, 9 3.5, 0 7" fill="#94a3b8"/>
    </marker>
    <!-- Open arrow → dependency (dashed) -->
    <marker id="dep" markerWidth="12" markerHeight="8" refX="11" refY="4" orient="auto">
      <path d="M0,0 L11,4 L0,8" fill="none" stroke="#3b82f6" stroke-width="1.3"/>
    </marker>
    <!-- Open arrow → enum contains (dashed green) -->
    <marker id="enum-arr" markerWidth="10" markerHeight="7" refX="9" refY="3.5" orient="auto">
      <path d="M0,0 L9,3.5 L0,7" fill="none" stroke="#4ade80" stroke-width="1.3"/>
    </marker>
  </defs>

  <!-- ─── Background ─── -->
  <rect width="1400" height="780" fill="#0f172a"/>
  <rect width="1400" height="780" fill="url(#grid)"/>

  <!-- ─── Title ─── -->
  <text x="700" y="15" fill="#475569" font-size="10" text-anchor="middle" letter-spacing="0.5">
    Class Diagram — Healthcare Compliance Login &amp; Signup System  ·  Week 10 Activity 1  ·  MSE800 Group W
  </text>

  <!-- ═══════════════════════════════════════════════════════════════════ -->
  <!--  AbstractUser  (x=500 y=22 w=400 h=215)                           -->
  <!-- ═══════════════════════════════════════════════════════════════════ -->
  <rect x="500" y="22" width="400" height="215" rx="8" fill="#111827" stroke="#6b7280" stroke-width="1.5"/>
  <rect x="500" y="22" width="400" height="36"  rx="8" fill="#374151"/>
  <rect x="500" y="44"  width="400" height="14" fill="#374151"/>
  <text x="700" y="38"  fill="white"   font-size="11" font-weight="700" text-anchor="middle">AbstractUser</text>
  <text x="700" y="52"  fill="#9ca3af" font-size="8"  text-anchor="middle">« Django built-in · django.contrib.auth »</text>
  <line x1="500" y1="58" x2="900" y2="58" stroke="#4b5563" stroke-width="1"/>
  <text x="510" y="71"  fill="#6b7280" font-size="7.5" font-weight="600" letter-spacing="1">FIELDS</text>
  <text x="510" y="86"  fill="#9ca3af" font-size="9">id : AutoField  {PK, auto-increment}</text>
  <text x="510" y="101" fill="#9ca3af" font-size="9">username : CharField(150)  {unique}</text>
  <text x="510" y="116" fill="#9ca3af" font-size="9">email : EmailField</text>
  <text x="510" y="131" fill="#9ca3af" font-size="9">password : CharField  {hashed, bcrypt}</text>
  <text x="510" y="146" fill="#9ca3af" font-size="9">is_active : BooleanField  {default True}</text>
  <text x="510" y="161" fill="#9ca3af" font-size="9">date_joined : DateTimeField  {auto}</text>
  <line x1="500" y1="169" x2="900" y2="169" stroke="#1f2937" stroke-width="1"/>
  <text x="510" y="182" fill="#6b7280" font-size="7.5" font-weight="600" letter-spacing="1">METHODS</text>
  <text x="510" y="197" fill="#d1d5db" font-size="9">set_password(raw_password : str)</text>
  <text x="510" y="212" fill="#d1d5db" font-size="9">check_password(raw : str) : bool</text>
  <text x="510" y="227" fill="#d1d5db" font-size="9">get_permissions() : set</text>

  <!-- ═══════════════════════════════════════════════════════════════════ -->
  <!--  User  (x=100 y=282 w=420 h=220)                                  -->
  <!-- ═══════════════════════════════════════════════════════════════════ -->
  <rect x="100" y="282" width="420" height="220" rx="8" fill="#071811" stroke="#22c55e" stroke-width="1.5"/>
  <rect x="100" y="282" width="420" height="36"  rx="8" fill="#14532d"/>
  <rect x="100" y="304" width="420" height="14"  fill="#14532d"/>
  <text x="310" y="298" fill="white"   font-size="11" font-weight="700" text-anchor="middle">User</text>
  <text x="310" y="312" fill="#86efac" font-size="8"  text-anchor="middle">« extends AbstractUser · accounts.models »</text>
  <line x1="100" y1="318" x2="520" y2="318" stroke="#166534" stroke-width="1"/>
  <text x="110" y="331" fill="#6b7280" font-size="7.5" font-weight="600" letter-spacing="1">FIELDS</text>
  <text x="110" y="346" fill="#86efac" font-size="9">full_name : CharField(100)  {required ★}</text>
  <text x="110" y="361" fill="#86efac" font-size="9">dob : DateField  {required ★}</text>
  <text x="110" y="376" fill="#86efac" font-size="9">role : CharField  {STAFF | ADMIN}</text>
  <text x="110" y="391" fill="#a7f3d0" font-size="9">email : EmailField  {unique · login key}</text>
  <text x="110" y="406" fill="#6b7280" font-size="8.5">USERNAME_FIELD = 'email'</text>
  <line x1="100" y1="414" x2="520" y2="414" stroke="#1e3a2f" stroke-width="1"/>
  <text x="110" y="427" fill="#6b7280" font-size="7.5" font-weight="600" letter-spacing="1">PROPERTIES</text>
  <text x="110" y="442" fill="#4ade80" font-size="9">is_admin : bool  {read-only @property}</text>
  <line x1="100" y1="450" x2="520" y2="450" stroke="#1e3a2f" stroke-width="1"/>
  <text x="110" y="463" fill="#6b7280" font-size="7.5" font-weight="600" letter-spacing="1">METHODS</text>
  <text x="110" y="478" fill="#bbf7d0" font-size="9">__str__() : str</text>
  <text x="110" y="493" fill="#6b7280" font-size="8">Meta: ordering=['full_name']</text>

  <!-- ═══════════════════════════════════════════════════════════════════ -->
  <!--  Role Enum  (x=562 y=288 w=178 h=75)                              -->
  <!-- ═══════════════════════════════════════════════════════════════════ -->
  <rect x="562" y="288" width="178" height="75" rx="6" fill="#071811" stroke="#4ade80" stroke-width="1.2" stroke-dasharray="5,3"/>
  <rect x="562" y="288" width="178" height="26" rx="6" fill="#166534"/>
  <rect x="562" y="303" width="178" height="11" fill="#166534"/>
  <text x="651" y="304" fill="white"   font-size="8.5" font-weight="700" text-anchor="middle">«enumeration» Role</text>
  <line x1="562" y1="314" x2="740" y2="314" stroke="#14532d" stroke-width="1"/>
  <text x="572" y="329" fill="#86efac" font-size="9">STAFF = 'STAFF'</text>
  <text x="572" y="344" fill="#86efac" font-size="9">ADMIN = 'ADMIN'</text>

  <!-- ═══════════════════════════════════════════════════════════════════ -->
  <!--  PasswordResetToken  (x=790 y=282 w=450 h=220)                    -->
  <!-- ═══════════════════════════════════════════════════════════════════ -->
  <rect x="790" y="282" width="450" height="220" rx="8" fill="#1a0d00" stroke="#f59e0b" stroke-width="1.5"/>
  <rect x="790" y="282" width="450" height="36"  rx="8" fill="#78350f"/>
  <rect x="790" y="304" width="450" height="14"  fill="#78350f"/>
  <text x="1015" y="298" fill="white"   font-size="11" font-weight="700" text-anchor="middle">PasswordResetToken</text>
  <text x="1015" y="312" fill="#fde68a" font-size="8"  text-anchor="middle">« Django Model · accounts.models »</text>
  <line x1="790" y1="318" x2="1240" y2="318" stroke="#92400e" stroke-width="1"/>
  <text x="800" y="331" fill="#6b7280" font-size="7.5" font-weight="600" letter-spacing="1">FIELDS</text>
  <text x="800" y="346" fill="#fde68a" font-size="9">id : AutoField  {PK}</text>
  <text x="800" y="361" fill="#fde68a" font-size="9">user : ForeignKey → User  {on_delete=CASCADE}</text>
  <text x="800" y="376" fill="#fde68a" font-size="9">token : CharField(64)  {unique · secrets.token_urlsafe}</text>
  <text x="800" y="391" fill="#fde68a" font-size="9">expires_at : DateTimeField  {+30 min · auto}</text>
  <text x="800" y="406" fill="#fde68a" font-size="9">is_used : BooleanField  {default False}</text>
  <text x="800" y="421" fill="#fde68a" font-size="9">created_at : DateTimeField  {auto_now_add}</text>
  <line x1="790" y1="429" x2="1240" y2="429" stroke="#451a00" stroke-width="1"/>
  <text x="800" y="442" fill="#6b7280" font-size="7.5" font-weight="600" letter-spacing="1">METHODS</text>
  <text x="800" y="457" fill="#fef3c7" font-size="9">save(*args, **kwargs)  {auto-generates token &amp; expiry}</text>
  <text x="800" y="472" fill="#fef3c7" font-size="9">is_valid() : bool  {not is_used and now &lt; expires_at}</text>
  <text x="800" y="487" fill="#fef3c7" font-size="9">__str__() : str</text>

  <!-- ═══════════════════════════════════════════════════════════════════ -->
  <!--  ARROWS — Models                                                   -->
  <!-- ═══════════════════════════════════════════════════════════════════ -->

  <!-- 1. Inheritance: User ──▷ AbstractUser (hollow triangle at parent) -->
  <path d="M310,282 L310,256 L700,256 L700,237"
        fill="none" stroke="#94a3b8" stroke-width="1.5" marker-end="url(#inherit)"/>
  <text x="490" y="252" fill="#6b7280" font-size="8" text-anchor="middle">extends</text>

  <!-- 2. FK: User ──── 0..* PasswordResetToken -->
  <line x1="520" y1="392" x2="790" y2="392" stroke="#94a3b8" stroke-width="1.5" marker-end="url(#assoc)"/>
  <text x="534" y="387" fill="#94a3b8" font-size="8.5" font-weight="600">1</text>
  <text x="770" y="387" fill="#94a3b8" font-size="8.5" font-weight="600">0..*</text>
  <text x="655" y="386" fill="#6b7280" font-size="8" text-anchor="middle">reset_tokens</text>

  <!-- 3. Role enum → User (contains / nested class) -->
  <line x1="562" y1="327" x2="520" y2="381" stroke="#4ade80" stroke-width="1"
        stroke-dasharray="4,3" marker-end="url(#enum-arr)"/>
  <text x="524" y="350" fill="#4ade80" font-size="7.5">«nested»</text>

  <!-- ═══════════════════════════════════════════════════════════════════ -->
  <!--  SERIALIZERS  y=552                                               -->
  <!-- ═══════════════════════════════════════════════════════════════════ -->

  <!-- ── RegisterSerializer  x=18 ── -->
  <rect x="18"  y="552" width="210" height="148" rx="7" fill="#0a1128" stroke="#3b82f6" stroke-width="1.5"/>
  <rect x="18"  y="552" width="210" height="30"  rx="7" fill="#1e3a8a"/>
  <rect x="18"  y="568" width="210" height="14"  fill="#1e3a8a"/>
  <text x="123" y="567" fill="white"   font-size="9"   font-weight="700" text-anchor="middle">RegisterSerializer</text>
  <text x="123" y="578" fill="#93c5fd" font-size="7"   text-anchor="middle">« DRF Serializer »</text>
  <line x1="18"  y1="582" x2="228" y2="582" stroke="#1e3a8a" stroke-width="1"/>
  <text x="28"  y="594" fill="#6b7280" font-size="7"   font-weight="600" letter-spacing="1">FIELDS</text>
  <text x="28"  y="608" fill="#bfdbfe" font-size="8.5">password : CharField</text>
  <text x="28"  y="622" fill="#bfdbfe" font-size="8.5">password2 : CharField</text>
  <line x1="18"  y1="630" x2="228" y2="630" stroke="#1e293b" stroke-width="1"/>
  <text x="28"  y="642" fill="#6b7280" font-size="7"   font-weight="600" letter-spacing="1">METHODS</text>
  <text x="28"  y="656" fill="#93c5fd" font-size="8.5">validate(data) : dict</text>
  <text x="28"  y="670" fill="#93c5fd" font-size="8.5">create(data) : User</text>
  <text x="28"  y="690" fill="#475569" font-size="7.5">Meta: model=User</text>

  <!-- ── LoginSerializer  x=238 ── -->
  <rect x="238" y="552" width="210" height="130" rx="7" fill="#0a1128" stroke="#3b82f6" stroke-width="1.5"/>
  <rect x="238" y="552" width="210" height="30"  rx="7" fill="#1e3a8a"/>
  <rect x="238" y="568" width="210" height="14"  fill="#1e3a8a"/>
  <text x="343" y="567" fill="white"   font-size="9"   font-weight="700" text-anchor="middle">LoginSerializer</text>
  <text x="343" y="578" fill="#93c5fd" font-size="7"   text-anchor="middle">« DRF Serializer »</text>
  <line x1="238" y1="582" x2="448" y2="582" stroke="#1e3a8a" stroke-width="1"/>
  <text x="248" y="594" fill="#6b7280" font-size="7"   font-weight="600" letter-spacing="1">FIELDS</text>
  <text x="248" y="608" fill="#bfdbfe" font-size="8.5">email : EmailField</text>
  <text x="248" y="622" fill="#bfdbfe" font-size="8.5">password : CharField</text>
  <line x1="238" y1="630" x2="448" y2="630" stroke="#1e293b" stroke-width="1"/>
  <text x="248" y="642" fill="#6b7280" font-size="7"   font-weight="600" letter-spacing="1">METHODS</text>
  <text x="248" y="656" fill="#93c5fd" font-size="8.5">validate(data) : {user}</text>
  <text x="248" y="672" fill="#475569" font-size="7.5">uses authenticate()</text>

  <!-- ── UserProfileSerializer  x=458 ── -->
  <rect x="458" y="552" width="220" height="130" rx="7" fill="#0a1128" stroke="#3b82f6" stroke-width="1.5"/>
  <rect x="458" y="552" width="220" height="30"  rx="7" fill="#1e3a8a"/>
  <rect x="458" y="568" width="220" height="14"  fill="#1e3a8a"/>
  <text x="568" y="567" fill="white"   font-size="8.5" font-weight="700" text-anchor="middle">UserProfileSerializer</text>
  <text x="568" y="578" fill="#93c5fd" font-size="7"   text-anchor="middle">« DRF Serializer »</text>
  <line x1="458" y1="582" x2="678" y2="582" stroke="#1e3a8a" stroke-width="1"/>
  <text x="468" y="594" fill="#6b7280" font-size="7"   font-weight="600" letter-spacing="1">META</text>
  <text x="468" y="608" fill="#bfdbfe" font-size="8.5">model = User</text>
  <text x="468" y="622" fill="#bfdbfe" font-size="8.5">fields: id, email, full_name, dob…</text>
  <line x1="458" y1="630" x2="678" y2="630" stroke="#1e293b" stroke-width="1"/>
  <text x="468" y="642" fill="#6b7280" font-size="7"   font-weight="600" letter-spacing="1">READ-ONLY</text>
  <text x="468" y="656" fill="#475569" font-size="8.5">id · email · role · date_joined</text>
  <text x="468" y="672" fill="#475569" font-size="7.5">Supports GET + PUT /me/</text>

  <!-- ── ChangePasswordSerializer  x=688 ── -->
  <rect x="688" y="552" width="210" height="130" rx="7" fill="#0a1128" stroke="#3b82f6" stroke-width="1.5"/>
  <rect x="688" y="552" width="210" height="30"  rx="7" fill="#1e3a8a"/>
  <rect x="688" y="568" width="210" height="14"  fill="#1e3a8a"/>
  <text x="793" y="565" fill="white"   font-size="8"   font-weight="700" text-anchor="middle">ChangePasswordSerializer</text>
  <text x="793" y="578" fill="#93c5fd" font-size="7"   text-anchor="middle">« DRF Serializer »</text>
  <line x1="688" y1="582" x2="898" y2="582" stroke="#1e3a8a" stroke-width="1"/>
  <text x="698" y="594" fill="#6b7280" font-size="7"   font-weight="600" letter-spacing="1">FIELDS</text>
  <text x="698" y="608" fill="#bfdbfe" font-size="8.5">old_password : CharField</text>
  <text x="698" y="622" fill="#bfdbfe" font-size="8.5">new_password : CharField</text>
  <line x1="688" y1="630" x2="898" y2="630" stroke="#1e293b" stroke-width="1"/>
  <text x="698" y="642" fill="#6b7280" font-size="7"   font-weight="600" letter-spacing="1">METHODS</text>
  <text x="698" y="656" fill="#93c5fd" font-size="8.5">validate_old_password()</text>
  <text x="698" y="672" fill="#475569" font-size="7.5">context: {request} (auth user)</text>

  <!-- ── ForgotPasswordSerializer  x=908 ── -->
  <rect x="908" y="552" width="210" height="115" rx="7" fill="#0a1128" stroke="#3b82f6" stroke-width="1.5"/>
  <rect x="908" y="552" width="210" height="30"  rx="7" fill="#1e3a8a"/>
  <rect x="908" y="568" width="210" height="14"  fill="#1e3a8a"/>
  <text x="1013" y="565" fill="white"   font-size="8"   font-weight="700" text-anchor="middle">ForgotPasswordSerializer</text>
  <text x="1013" y="578" fill="#93c5fd" font-size="7"   text-anchor="middle">« DRF Serializer »</text>
  <line x1="908"  y1="582" x2="1118" y2="582" stroke="#1e3a8a" stroke-width="1"/>
  <text x="918"  y="594" fill="#6b7280" font-size="7"   font-weight="600" letter-spacing="1">FIELDS</text>
  <text x="918"  y="608" fill="#bfdbfe" font-size="8.5">email : EmailField</text>
  <line x1="908"  y1="616" x2="1118" y2="616" stroke="#1e293b" stroke-width="1"/>
  <text x="918"  y="628" fill="#6b7280" font-size="7"   font-weight="600" letter-spacing="1">METHODS</text>
  <text x="918"  y="642" fill="#93c5fd" font-size="8.5">validate_email(value) : str</text>
  <text x="918"  y="656" fill="#475569" font-size="7.5">Silent (no account reveal)</text>

  <!-- ── ResetPasswordSerializer  x=1128 ── -->
  <rect x="1128" y="552" width="250" height="148" rx="7" fill="#0a1128" stroke="#3b82f6" stroke-width="1.5"/>
  <rect x="1128" y="552" width="250" height="30"  rx="7" fill="#1e3a8a"/>
  <rect x="1128" y="568" width="250" height="14"  fill="#1e3a8a"/>
  <text x="1253" y="565" fill="white"   font-size="8.5" font-weight="700" text-anchor="middle">ResetPasswordSerializer</text>
  <text x="1253" y="578" fill="#93c5fd" font-size="7"   text-anchor="middle">« DRF Serializer »</text>
  <line x1="1128" y1="582" x2="1378" y2="582" stroke="#1e3a8a" stroke-width="1"/>
  <text x="1138" y="594" fill="#6b7280" font-size="7"   font-weight="600" letter-spacing="1">FIELDS</text>
  <text x="1138" y="608" fill="#bfdbfe" font-size="8.5">token : CharField</text>
  <text x="1138" y="622" fill="#bfdbfe" font-size="8.5">new_password : CharField</text>
  <text x="1138" y="636" fill="#bfdbfe" font-size="8.5">new_password2 : CharField</text>
  <line x1="1128" y1="644" x2="1378" y2="644" stroke="#1e293b" stroke-width="1"/>
  <text x="1138" y="656" fill="#6b7280" font-size="7"   font-weight="600" letter-spacing="1">METHODS</text>
  <text x="1138" y="670" fill="#93c5fd" font-size="8.5">validate(data) : dict</text>
  <text x="1138" y="684" fill="#475569" font-size="7.5">Looks up PasswordResetToken</text>
  <text x="1138" y="696" fill="#475569" font-size="7.5">Checks is_valid() before save</text>

  <!-- ═══════════════════════════════════════════════════════════════════ -->
  <!--  ARROWS — Serializer → Model dependencies (dashed)                -->
  <!-- ═══════════════════════════════════════════════════════════════════ -->

  <!-- RegisterSerializer → User (straight up, x=123 inside User's x-range 100-520) -->
  <line x1="123" y1="552" x2="123" y2="502"
        stroke="#3b82f6" stroke-width="1.2" stroke-dasharray="5,3" marker-end="url(#dep)"/>
  <text x="80" y="532" fill="#3b82f6" font-size="7.5">«creates»</text>

  <!-- LoginSerializer → User (straight up, x=343 inside User's x-range) -->
  <line x1="343" y1="552" x2="343" y2="502"
        stroke="#3b82f6" stroke-width="1.2" stroke-dasharray="5,3" marker-end="url(#dep)"/>
  <text x="350" y="530" fill="#3b82f6" font-size="7.5">«authenticates»</text>

  <!-- UserProfileSerializer → User (x=568, outside User right=520, route around) -->
  <path d="M568,552 L568,525 L480,525 L480,502"
        fill="none" stroke="#3b82f6" stroke-width="1.2" stroke-dasharray="5,3" marker-end="url(#dep)"/>
  <text x="500" y="520" fill="#3b82f6" font-size="7.5">«serializes»</text>

  <!-- ChangePasswordSerializer → User (x=793, route left to User bottom-right) -->
  <path d="M793,552 L793,515 L500,515 L500,502"
        fill="none" stroke="#3b82f6" stroke-width="1.2" stroke-dasharray="5,3" marker-end="url(#dep)"/>
  <text x="620" y="511" fill="#3b82f6" font-size="7.5">«validates password»</text>

  <!-- ResetPasswordSerializer → PasswordResetToken -->
  <path d="M1253,552 L1253,530 L1015,530 L1015,502"
        fill="none" stroke="#3b82f6" stroke-width="1.2" stroke-dasharray="5,3" marker-end="url(#dep)"/>
  <text x="1090" y="527" fill="#3b82f6" font-size="7.5">«validates token»</text>

  <!-- ═══════════════════════════════════════════════════════════════════ -->
  <!--  LEGEND  y=720                                                     -->
  <!-- ═══════════════════════════════════════════════════════════════════ -->
  <rect x="0" y="718" width="1400" height="62" fill="#091428"/>
  <text x="20" y="733" fill="#475569" font-size="8" font-weight="600" letter-spacing="1">LEGEND</text>

  <!-- Grey: Django built-in -->
  <rect x="80"  y="724" width="12" height="12" rx="2" fill="#374151" stroke="#6b7280" stroke-width="1"/>
  <text x="96"  y="734" fill="#9ca3af" font-size="8">Django Built-in</text>

  <!-- Green: Custom Model -->
  <rect x="215" y="724" width="12" height="12" rx="2" fill="#14532d" stroke="#22c55e" stroke-width="1"/>
  <text x="231" y="734" fill="#86efac" font-size="8">Custom Model (User)</text>

  <!-- Amber: Auth Model -->
  <rect x="380" y="724" width="12" height="12" rx="2" fill="#78350f" stroke="#f59e0b" stroke-width="1"/>
  <text x="396" y="734" fill="#fde68a" font-size="8">Auth Model (PasswordResetToken)</text>

  <!-- Blue: Serializer -->
  <rect x="610" y="724" width="12" height="12" rx="2" fill="#1e3a8a" stroke="#3b82f6" stroke-width="1"/>
  <text x="626" y="734" fill="#93c5fd" font-size="8">DRF Serializer</text>

  <!-- Green dashed: Enum -->
  <rect x="730" y="724" width="12" height="12" rx="2" fill="#071811" stroke="#4ade80" stroke-width="1" stroke-dasharray="3,2"/>
  <text x="746" y="734" fill="#4ade80" font-size="8">Enumeration</text>

  <!-- Arrow types -->
  <line x1="840" y1="730" x2="880" y2="730" stroke="#94a3b8" stroke-width="1.5" marker-end="url(#inherit)"/>
  <text x="885" y="734" fill="#94a3b8" font-size="8">Inheritance</text>

  <line x1="970" y1="730" x2="1010" y2="730" stroke="#94a3b8" stroke-width="1.5" marker-end="url(#assoc)"/>
  <text x="1015" y="734" fill="#94a3b8" font-size="8">Association (FK)</text>

  <line x1="1115" y1="730" x2="1155" y2="730" stroke="#3b82f6" stroke-width="1.2" stroke-dasharray="5,3" marker-end="url(#dep)"/>
  <text x="1160" y="734" fill="#3b82f6" font-size="8">Dependency «uses»</text>

  <!-- Second legend row -->
  <text x="20"  y="754" fill="#1e3a5f" font-size="7.5">★ = Week 10 Activity 1 required fields (Full Name + Date of Birth)</text>
  <text x="500" y="754" fill="#1e3a5f" font-size="7.5">Tables: accounts_user  ·  accounts_passwordresettoken  ·  SQLite (dev) / PostgreSQL (prod)</text>
  <text x="1380" y="754" fill="#1e3a5f" font-size="7.5" text-anchor="end">MSE800 Group W  ·  Week 10  ·  2026</text>
</svg>